# xmcd
#
# Track frame offsets: 
#        150
#        22124
#        41398
#        60620
#        79219
#        104793
#
# Disc length: 1698 seconds
#
# Revision: 0
# Processed by: cddbd v1.5.2PL0 Copyright (c) Steve Scherf et al.
# Submitted via: ExactAudioCopy v0.95a5
#
DISCID=4c06a006
DTITLE=Various Artist - À¼É«ÂóÌï
DYEAR=2006
DGENRE=Avantgarde
TTITLE0=Ìï¼¦
TTITLE1=Ê÷ÌÙ
TTITLE2=¸òó¡
TTITLE3=´ºÌì
TTITLE4=ÇïÌì
TTITLE5=¶¬Ìì
EXTD=
EXTT0=
EXTT1=
EXTT2=
EXTT3=
EXTT4=
EXTT5=
PLAYORDER=
